<svg width="345" height="300" viewBox="0 0 345 300" fill="none" xmlns="http://www.w3.org/2000/svg">
    <g opacity="0.05">
        <path d="M229.393 241.842C210.712 260.112 192.96 269.614 169.353 279.979C145.746 290.345 120.211 295.65 94.4084 295.55C68.6058 295.45 43.1131 289.947 19.588 279.399C-3.93721 268.85 -20.2223 259.526 -37.3926 240.358L-10.8741 206.586C2.38517 221.388 18.6262 233.248 36.7934 241.393C54.9602 249.539 74.6463 253.788 94.5716 253.866C114.497 253.943 134.216 249.846 152.445 241.842C170.676 233.837 187.009 222.104 200.384 207.405L229.393 241.842Z" fill="#968BDA" />
        <path d="M248.75 211.601C264.516 184.145 275.907 142.727 275.942 110.698C275.976 78.6682 267.6 47.1917 251.652 19.4189C235.704 -8.3539 212.744 -31.4485 185.069 -47.553C162.912 -60.4465 144.81 -70.3423 109.19 -73.8477L93.7852 -31.7349C118.69 -31.6273 143.13 -24.9767 164.658 -12.449C186.186 0.0786972 204.047 18.044 216.453 39.6484C228.859 61.2527 235.375 85.7383 235.347 110.654C235.321 135.569 223.641 181.224 202.036 205.175L248.75 211.601Z" fill="#968BDA" />
        <path d="M-56.7501 211.607C-72.5162 184.151 -83.9066 142.733 -83.9413 110.704C-83.976 78.6742 -75.5998 47.1977 -59.6518 19.4249C-43.7038 -8.3479 -20.7433 -31.4425 6.93124 -47.547C34.6058 -63.6516 47.2879 -67.4155 74.7326 -73.2578L93.4187 -31.781C68.5138 -31.6729 48.8704 -24.9707 27.3426 -12.443C5.8143 0.0847092 -12.0466 18.05 -24.4525 39.6544C-36.8585 61.2587 -43.3743 85.7443 -43.3472 110.66C-43.3205 135.575 -31.6406 181.23 -10.0354 205.181L-56.7501 211.607Z" fill="#968BDA" />
        <path d="M202.714 206.586L93.654 -33.6211L-10.7148 205.994L93.654 147.422L202.714 206.586Z" fill="#968BDA" />
    </g>
</svg>
    