<svg width="250" height="260" viewBox="0 0 25 26" fill="none" xmlns="http://www.w3.org/2000/svg">
    <g filter="url(#filter0_i_2433_129)">
        <path d="M22.512 19.7171C23.5709 17.8454 24.336 15.0218 24.3383 12.8384C24.3407 10.6549 23.7781 8.50916 22.7069 6.61584C21.6358 4.72257 20.0936 3.1482 18.2348 2.05034C16.7466 1.17139 15.5307 0.496778 13.1382 0.257812L12.1035 3.12867C13.7763 3.13601 15.4179 3.58939 16.8638 4.44341C18.3098 5.29744 19.5095 6.52216 20.3427 7.99491C21.176 9.46772 21.6136 11.1369 21.6117 12.8354C21.61 14.5339 20.8255 17.6462 19.3743 19.279L22.512 19.7171Z" fill="url(#paint0_linear_2433_129)" />
        <path d="M1.99238 19.7163C0.93339 17.8446 0.16837 15.0211 0.166023 12.8377C0.163676 10.6542 0.72626 8.50844 1.79745 6.61513C2.86864 4.72183 4.41083 3.14746 6.26964 2.0496C8.12845 0.951731 8.98024 0.695146 10.8236 0.296875L12.0787 3.12439C10.4059 3.13173 9.08652 3.58865 7.64056 4.44267C6.1946 5.29666 4.99494 6.52137 4.16172 7.99419C3.32844 9.46694 2.89077 11.1362 2.89258 12.8347C2.89439 14.5332 3.67886 17.6455 5.13005 19.2783L1.99238 19.7163Z" fill="url(#paint1_linear_2433_129)" />
        <path d="M19.374 19.3325L12.0789 3.16406L5.09766 19.2927L12.0789 15.3501L19.374 19.3325Z" fill="url(#paint2_linear_2433_129)" />
        <path d="M21.295 21.6627C20.0399 22.915 18.8473 23.5664 17.2612 24.2769C15.6751 24.9874 13.9596 25.351 12.2261 25.3442C10.4926 25.3373 8.77989 24.9601 7.19936 24.2371C5.61882 23.514 4.5247 22.8749 3.37109 21.561L5.15273 19.2461C6.04361 20.2607 7.13471 21.0736 8.35524 21.6319C9.57576 22.1903 10.8984 22.4816 12.2371 22.4869C13.5757 22.4922 14.9005 22.2114 16.1253 21.6627C17.3501 21.114 18.4474 20.3098 19.346 19.3022L21.295 21.6627Z" fill="url(#paint3_linear_2433_129)" />
    </g>
    <defs>
        <filter id="filter0_i_2433_129" x="0.166016" y="0.257812" width="24.1719" height="27.0859" filterUnits="userSpaceOnUse" colorInterpolationFilters="sRGB">
            <feFlood floodOpacity="0" result="BackgroundImageFix" />
            <feBlend mode="normal" in="SourceGraphic" in2="BackgroundImageFix" result="shape" />
            <feColorMatrix in="SourceAlpha" type="matrix" values="0 0 0 0 0 0 0 0 0 0 0 0 0 0 0 0 0 0 127 0" result="hardAlpha" />
            <feOffset dy="2" />
            <feGaussianBlur stdDeviation="2" />
            <feComposite in2="hardAlpha" operator="arithmetic" k2="-1" k3="1" />
            <feColorMatrix type="matrix" values="0 0 0 0 0 0 0 0 0 0 0 0 0 0 0 0 0 0 0.35 0" />
            <feBlend mode="normal" in2="shape" result="effect1_innerShadow_2433_129" />
        </filter>
        <linearGradient id="paint0_linear_2433_129" x1="21.8452" y1="20.329" x2="20.9087" y2="-0.614054" gradientUnits="userSpaceOnUse">
            <stop offset="0.0001" stopColor="#865DDD" />
            <stop offset="1" stopColor="#1F25A0" />
        </linearGradient>
        <linearGradient id="paint1_linear_2433_129" x1="3.72466" y1="20.3283" x2="6.09599" y2="0.438178" gradientUnits="userSpaceOnUse">
            <stop stopColor="#40F6D1" />
            <stop offset="1" stopColor="#221FA0" />
        </linearGradient>
        <linearGradient id="paint2_linear_2433_129" x1="2.58869" y1="4.60481" x2="22.5292" y2="20.6175" gradientUnits="userSpaceOnUse">
            <stop stopColor="#3CFFB9" />
            <stop offset="0.0001" stopColor="#3CFFD0" />
            <stop offset="1" stopColor="#7F00E3" />
        </linearGradient>
        <linearGradient id="paint3_linear_2433_129" x1="2.82205" y1="21.8398" x2="8.76927" y2="13.0902" gradientUnits="userSpaceOnUse">
            <stop stopColor="#3CFFB9" />
            <stop offset="0.0001" stopColor="#3CFFD0" />
            <stop offset="1" stopColor="#865DDD" />
        </linearGradient>
    </defs>
</svg>
    