<?xml version="1.0" standalone="no"?>
<!DOCTYPE svg PUBLIC "-//W3C//DTD SVG 20010904//EN"
 "http://www.w3.org/TR/2001/REC-SVG-20010904/DTD/svg10.dtd">
<svg version="1.0" xmlns="http://www.w3.org/2000/svg"
 width="260.000000pt" height="260.000000pt" viewBox="0 0 260.000000 260.000000"
 preserveAspectRatio="xMidYMid meet">
<metadata>
Created by potrace 1.14, written by Peter Selinger 2001-2017
</metadata>
<g transform="translate(0.000000,260.000000) scale(0.100000,-0.100000)"
fill="#000000" stroke="none">
<path d="M1362 2567 c-5 -6 -15 -30 -22 -52 -7 -22 -15 -44 -19 -50 -3 -5 -6
-12 -6 -15 0 -3 -11 -37 -25 -77 -13 -40 -21 -75 -18 -79 4 -3 26 -8 50 -10
37 -4 108 -15 173 -28 32 -7 147 -51 202 -79 28 -15 86 -53 130 -86 174 -131
295 -316 355 -539 21 -82 30 -298 15 -377 -17 -90 -59 -231 -88 -298 -34 -78
-106 -197 -118 -197 -7 0 -58 111 -278 600 -14 30 -44 98 -68 150 -24 52 -55
122 -70 155 -144 318 -212 470 -237 525 -48 104 -79 175 -79 180 0 3 -16 37
-34 76 -19 39 -46 101 -61 138 -29 74 -21 71 -128 47 -67 -16 -237 -80 -257
-97 -8 -8 -18 -14 -22 -14 -16 0 -140 -79 -212 -136 -303 -236 -479 -600 -479
-989 0 -112 28 -296 55 -365 5 -14 11 -34 13 -46 7 -35 84 -227 102 -253 15
-21 22 -23 68 -17 107 14 164 22 222 32 l36 6 -78 -102 c-44 -55 -83 -107 -88
-114 -22 -32 139 -162 301 -244 100 -51 245 -105 312 -117 19 -3 38 -8 42 -10
11 -8 147 -18 229 -18 125 0 254 18 338 47 23 9 45 15 48 14 11 -2 122 47 224
99 107 55 187 109 252 171 l37 36 -37 45 c-20 25 -44 54 -52 65 -8 10 -20 23
-25 30 -6 6 -26 31 -45 55 l-34 44 34 -6 c19 -4 58 -9 85 -12 28 -4 60 -8 71
-10 12 -2 46 -6 76 -10 l54 -7 19 44 c11 23 24 46 30 50 5 4 7 8 3 8 -4 0 3
21 14 47 21 49 74 222 84 278 29 160 35 274 21 405 -11 94 -42 225 -68 288
-10 23 -16 42 -14 42 3 0 -4 15 -15 33 -11 17 -20 40 -20 50 0 9 -4 17 -8 17
-5 0 -16 19 -27 43 -10 23 -21 44 -25 47 -3 3 -24 32 -45 64 -49 74 -257 286
-280 286 -3 0 -11 5 -18 10 -20 18 -132 89 -139 90 -4 0 -29 13 -55 28 -26 16
-70 37 -98 47 -27 10 -55 22 -61 27 -6 4 -13 5 -17 2 -3 -3 -15 -1 -26 5 -11
6 -33 13 -48 15 -26 4 -69 11 -119 22 -12 2 -26 -2 -32 -9z m-112 -289 c0 -8
-266 -631 -300 -703 -6 -11 -44 -99 -85 -195 -232 -537 -297 -691 -292 -696 3
-3 69 31 147 75 77 45 145 81 151 81 5 0 9 5 9 10 0 6 4 10 9 10 6 0 36 15 68
34 32 18 78 45 103 58 25 14 77 44 117 67 74 42 92 47 109 32 5 -4 43 -26 84
-48 41 -22 95 -51 120 -65 39 -22 183 -101 320 -176 25 -14 73 -40 108 -60
l63 -35 -33 -34 c-125 -131 -354 -246 -533 -269 -116 -15 -269 -7 -380 19
-105 25 -249 101 -359 187 -35 28 -122 116 -148 151 -65 84 -137 268 -169 428
-20 106 -20 275 0 366 58 254 195 459 406 607 103 73 218 122 342 147 97 19
143 22 143 9z"/>
</g>
</svg>
